<svg viewBox="0 0 600 135"
    xmlns="http://www.w3.org/2000/svg"
    fill="currentColor">
    <g transform="translate(15, 13) scale(0.8)">
        <path d="M 7.5 2 Q 14.5 0.5 16 4.5 L 19 21.5 L 19 30.5 L 20 31.5 L 20 68.5 L 23.5 74 L 27.5 74 L 35.5 70 Q 40.3 71.2 41.5 69 Q 43.3 71.8 49.5 70 L 57.5 73 Q 72.8 82.7 84.5 96 L 93.5 100 L 100.5 100 L 107 97 L 106.5 94 Q 103.5 98 96.5 98 L 86.5 94 L 61.5 71 L 49.5 66 L 35.5 66 L 27.5 70 L 24 70 L 24 63.5 L 23 62.5 L 23 30.5 L 19 8.5 L 20 8.5 Q 20.9 15.6 25.5 19 Q 30.6 22.4 40.5 21 L 52.5 18 L 72.5 8 L 77.5 7 L 83 10.5 L 84 18.5 L 81 26.5 L 70 45.5 L 66 62.5 L 67 67.5 L 69.5 71 L 77.5 72 L 92.5 67 L 103.5 67 L 111 72.5 Q 115.7 77.3 114 88.5 Q 109 103 97.5 111 L 80.5 120 L 66.5 122 L 60 122 L 60.5 126 L 76.5 126 L 77.5 127 Q 87.7 125.8 94 128.5 L 92.5 132 Q 87 130.5 85.5 134 L 45.5 134 L 44.5 133 L 29.5 133 L 21 128.5 L 27.5 127 L 37.5 127 L 38.5 126 L 56 126 Q 57.3 122.4 54.5 121 L 49.5 121 L 36.5 117 L 20 102.5 Q 8 87 3 64.5 L 2 49.5 L 1 48.5 L 1 24.5 L 2 23.5 L 3 9.5 L 7.5 2 Z "/>
    </g>
    <path d="M 175.5 33 L 184.5 33 L 192 39.5 Q 195.7 45.3 194 56.5 L 192 65.5 L 188 74.5 L 181.5 81 Q 176.7 85.2 166.5 84 L 161 81 L 159 95.5 L 154.5 103 Q 151.6 105.6 145.5 105 L 139 101.5 L 138 95.5 L 150 61.5 L 160 43.5 L 164.5 39 L 175.5 33 Z M 175 49 L 168 64 L 165 74 L 172 71 Q 176 67 177 61 L 177 50 L 175 49 Z "/>
    <path d="M 223.5 34 L 232 36 L 233 39.5 L 232 41.5 Q 236.8 43.3 235 51.5 L 229 87 L 246.5 88 L 254 82.5 L 249.5 76 L 241 68.5 Q 237 65 238 56.5 Q 239.7 45.2 247.5 40 L 260.5 34 L 273.5 34 L 282 40.5 L 281 45 L 277 46 Q 277.8 49.8 274.5 51 Q 269.7 53.3 261.5 52 L 258 54.5 Q 256.3 64.3 262.5 66 L 268 70.5 L 271 79.5 Q 268.8 80.8 270 85.5 L 267 91.5 L 260.5 98 Q 253 103.5 239.5 103 L 229 99 Q 230.1 95.7 226 97 Q 227 100.8 224.5 102 L 217.5 103 L 213 100.5 L 214 88 Q 208.4 88.8 205.5 93 L 201 93 Q 199.2 99.3 193.5 103 L 188.5 104 L 184 100.5 L 185 89.5 L 196 65.5 Q 205 48.5 218.5 36 L 223.5 34 Z M 218 58 L 213 65 L 207 81 L 215 81 L 219 59 L 218 58 Z "/>
    <path d="M 351.5 34 L 360 36 L 361 39.5 L 360 41.5 Q 364.8 43.3 363 51.5 L 358 81 Q 361.3 82.3 360 77.5 L 372 48.5 Q 374.2 41.2 379.5 37 Q 383.5 34 391.5 35 L 395 37.5 L 395 43.5 L 392 51.5 L 374 85.5 L 373 90 L 379.5 88 L 389 88 Q 388.2 92.2 392 93.5 L 392 96.5 L 388.5 101 L 379.5 103 L 369.5 103 L 365.5 102 L 363.5 103 L 359 100.5 L 356.5 94 Q 353.5 93.1 355 97.5 L 352.5 102 L 345.5 103 L 341 100.5 L 342 88 L 333.5 93 L 329 93 Q 327.2 99.3 321.5 103 L 316.5 104 L 312 100.5 Q 313.3 94.4 310.5 95 L 304.5 100 L 294.5 103 L 288.5 103 L 279.5 100 L 275 95.5 L 273 90.5 L 272 81.5 L 273 80.5 L 273 71.5 L 279 56.5 L 293.5 40 L 305.5 35 L 314.5 35 L 324 40.5 Q 326.7 43.8 326 50.5 L 322 61 L 311.5 64 L 309 61.5 Q 310.8 54.8 307.5 53 L 298 57 L 290 69.5 L 288 76.5 L 288 81.5 L 290 86 L 296.5 88 L 305.5 84 L 310 86.5 L 309 90.5 L 313 93 Q 322.9 58.2 346.5 36 L 351.5 34 Z M 346 58 L 342 63 L 335 81 L 343 81 L 346 65 L 346 58 Z "/>
    <path d="M 450.5 34 L 459 36 L 460 38.5 L 459 41.5 Q 463.5 43 462 50.5 L 457 78 Q 459.7 79.1 459 76.5 L 467 50.5 L 475.5 40 L 478.5 39 L 482 40 L 487 55.5 L 487 64 L 490 62.5 L 496 45.5 L 501.5 39 Q 505.7 35.5 514 37 L 513 51.5 L 509 58.5 L 499 88.5 L 493.5 98 Q 490.5 101 483.5 100 L 480 94.5 L 477 76 Q 473.7 74.7 475 79.5 Q 471.8 91.1 466 99 Q 462.5 102 455 101 Q 456 98 453 99 L 451.5 102 L 443.5 103 L 440 100.5 L 441 88 L 427 94.5 Q 425.6 100.6 420.5 103 L 414.5 104 Q 409 102 411 92.5 Q 422.3 58.3 445.5 36 L 450.5 34 Z M 445 58 L 440 65 L 434 80 L 435 81 L 442 81 L 445 64 L 445 58 Z "/>
    <path d="M 590.5 34 Q 597.5 32.5 599 36.5 L 598 42.5 L 578 75.5 L 572 87.5 L 570 95.5 L 572 99.5 Q 568.4 106.9 555.5 105 L 551 103 L 550 98.5 L 563 73 Q 560.3 74.1 561 71.5 L 559 61.5 L 559 43.5 L 561 40 L 568.5 37 L 571 39.5 L 574 48.5 L 574 53 Q 577.8 54.5 577 51.5 Q 582 41 590.5 34 Z "/>
    <path d="M 524.5 35 Q 535.3 33.6 540.5 38 L 553 49.5 L 556 57.5 L 556 64.5 Q 553.8 65.8 555 70.5 L 550 82.5 L 538.5 95 L 527.5 100 L 521.5 100 L 517.5 104 L 511.5 104 L 506 100.5 L 505 98.5 L 505 84.5 L 508 71.5 L 516 51.5 L 517 43.5 L 520.5 37 L 524.5 35 Z M 531 53 L 524 78 L 523 89 L 523 90 L 527 89 L 536 82 L 542 71 Q 543 62 540 59 L 534 53 L 531 53 Z "/>
</svg>
