<svg viewBox="0 0 181 35" fill="none" xmlns="http://www.w3.org/2000/svg">
<path d="M92.1951 34.9707C81.4183 35.4458 74.5487 30.1331 70.9707 20.242C68.4805 13.3456 63.9436 10.5669 56.6016 10.682C40.7584 10.9124 25.3302 13.144 10.6177 19.1622C6.1381 20.9907 3.4762 18.6295 0.885762 16.1532C-1.26101 14.0799 0.671043 9.90465 4.77854 8.59448C11.591 6.42046 18.5036 4.07366 25.545 3.18102C38.1967 1.5829 50.9913 0.992615 63.7145 0.0423814C70.7416 -0.475928 74.9781 3.82887 78.3557 9.17033C79.658 11.2148 80.3164 13.6912 81.2324 15.9804C84.0947 23.1359 85.3255 24.5324 92.968 23.2942C105.705 21.2498 118.286 18.2119 130.952 15.6492C145.664 12.6545 160.377 9.60229 175.147 6.86677C176.921 6.53563 179.039 8.13373 181 8.8248C179.97 10.3077 179.254 12.6257 177.88 13.1152C169.851 16.0091 161.765 18.8455 153.521 20.9907C136.762 25.3531 119.903 29.298 103.058 33.3005C99.5085 34.15 95.816 34.4379 92.1951 34.985V34.9707Z" fill="currentColor"/>
</svg>
