<?xml version="1.0" standalone="no"?>
<!DOCTYPE svg PUBLIC "-//W3C//DTD SVG 20010904//EN"
 "http://www.w3.org/TR/2001/REC-SVG-20010904/DTD/svg10.dtd">
<svg version="1.0" xmlns="http://www.w3.org/2000/svg"
 width="377.000000pt" height="363.000000pt" viewBox="0 0 377.000000 363.000000"
 preserveAspectRatio="xMidYMid meet">

<g transform="translate(0.000000,363.000000) scale(0.100000,-0.100000)"
fill="#000000" stroke="none">
<path d="M1924 3355 c-13 -21 -18 -57 -20 -180 -4 -148 -3 -155 18 -175 29
-26 59 -25 86 3 21 22 22 33 22 185 0 155 -1 161 -22 176 -33 23 -65 20 -84
-9z"/>
<path d="M1626 3299 c-33 -26 -33 -50 -1 -97 14 -20 25 -42 25 -48 0 -7 16
-26 36 -43 l36 -32 31 19 c18 10 33 28 35 41 7 49 -82 181 -122 181 -8 0 -25
-9 -40 -21z"/>
<path d="M2230 3313 c-8 -4 -21 -13 -28 -22 -23 -30 -66 -126 -64 -146 2 -26
38 -55 67 -55 27 0 75 52 75 81 0 10 3 19 8 19 11 0 32 51 32 76 0 42 -43 65
-90 47z"/>
<path d="M2386 3109 c-31 -24 -96 -147 -96 -182 0 -38 27 -67 60 -63 33 4 50
18 72 61 8 17 27 53 41 81 28 53 27 89 -2 111 -23 18 -45 16 -75 -8z"/>
<path d="M1494 3112 c-12 -1 -27 -14 -34 -27 -12 -22 -10 -32 14 -87 35 -84
65 -120 99 -120 45 0 60 20 54 72 -6 47 -27 100 -39 100 -5 0 -8 6 -8 13 0 28
-48 56 -86 49z"/>
<path d="M1205 3045 c-14 -13 -25 -31 -25 -40 0 -9 32 -54 70 -101 91 -108
134 -121 168 -51 11 22 10 31 -2 55 -24 47 -108 134 -143 148 -42 18 -40 18
-68 -11z"/>
<path d="M2617 3018 c-52 -44 -107 -117 -107 -141 0 -23 40 -67 61 -67 20 0
79 38 79 50 0 4 25 33 55 65 58 61 64 77 39 113 -25 36 -71 29 -127 -20z"/>
<path d="M2102 2955 c-19 -24 -62 -146 -67 -192 -4 -25 36 -63 66 -63 27 0 55
31 70 79 6 20 15 41 19 46 4 6 8 17 8 25 1 8 4 32 7 53 5 29 3 43 -11 58 -25
27 -68 24 -92 -6z"/>
<path d="M1724 2945 c-29 -29 -28 -51 12 -149 39 -97 60 -111 116 -78 27 15
29 21 24 57 -9 59 -11 66 -34 117 -39 83 -73 98 -118 53z"/>
<path d="M2985 2919 c-27 -4 -70 -12 -95 -18 -25 -6 -53 -14 -64 -16 -59 -14
-83 -68 -48 -108 17 -19 76 -22 100 -4 6 5 12 7 12 4 0 -3 17 -1 38 4 20 5 55
12 77 15 22 3 50 12 63 20 38 25 25 83 -23 106 -5 2 -32 1 -60 -3z"/>
<path d="M883 2905 c-36 -15 -45 -39 -27 -76 14 -29 39 -39 99 -39 22 0 73 -9
112 -19 72 -19 73 -19 98 1 45 36 22 96 -45 117 -86 26 -195 34 -237 16z"/>
<path d="M2328 2738 c-16 -5 -28 -13 -28 -18 0 -4 -17 -37 -39 -71 -59 -98
-121 -235 -121 -267 0 -33 13 -47 53 -57 37 -10 52 5 94 94 20 42 42 84 50 93
8 9 12 22 8 27 -3 6 -2 11 3 11 5 0 12 8 16 18 3 9 16 35 29 57 40 70 2 136
-65 113z"/>
<path d="M1542 2720 c-30 -28 -28 -52 12 -123 18 -34 55 -102 81 -152 26 -49
56 -98 67 -107 41 -36 98 -10 98 45 0 35 -69 183 -125 268 -60 92 -91 108
-133 69z"/>
<path d="M2597 2668 c-98 -101 -128 -137 -138 -168 -27 -75 69 -114 121 -48
14 17 43 52 65 76 71 80 75 85 82 110 7 30 -25 76 -56 80 -16 3 -37 -11 -74
-50z"/>
<path d="M869 2686 c-2 -2 -38 -6 -79 -10 -63 -5 -79 -10 -96 -30 -27 -30 -21
-67 13 -88 20 -12 36 -13 76 -6 29 6 104 8 168 5 136 -6 159 2 159 57 0 50
-29 64 -142 70 -53 3 -97 4 -99 2z"/>
<path d="M2943 2680 c-101 -9 -139 -49 -99 -105 13 -19 25 -20 187 -19 96 0
184 4 195 8 42 13 37 83 -6 106 -24 13 -177 18 -277 10z"/>
<path d="M1239 2659 c-10 -10 -19 -28 -19 -38 0 -23 164 -199 197 -212 31 -11
51 -2 69 32 13 26 13 32 0 58 -17 31 -148 171 -162 172 -5 0 -22 2 -37 4 -18
2 -35 -3 -48 -16z"/>
<path d="M1943 2660 c-27 -11 -32 -29 -34 -110 -2 -126 0 -146 21 -168 26 -27
54 -28 80 -2 18 18 20 33 20 130 0 104 -1 112 -25 135 -26 27 -30 28 -62 15z"/>
<path d="M3117 2435 c-20 -14 -22 -38 -5 -68 6 -12 11 -58 11 -103 -1 -83 -22
-155 -58 -190 -8 -8 -15 -28 -15 -44 0 -33 29 -59 122 -109 84 -44 98 -53 153
-86 88 -54 103 -59 132 -49 37 13 49 37 38 71 -12 33 -110 101 -231 162 l-82
40 17 35 c18 39 43 46 78 21 12 -9 50 -31 85 -49 68 -36 97 -36 117 3 23 42
-8 79 -118 141 -35 19 -75 45 -89 58 -24 19 -25 24 -12 35 51 42 47 68 -14
100 -67 35 -110 46 -129 32z"/>
<path d="M725 2418 c-78 -40 -92 -66 -55 -106 21 -22 26 -42 11 -42 -8 0 -45
-21 -175 -98 -61 -36 -76 -66 -58 -107 19 -41 51 -40 123 1 35 21 71 43 79 50
8 7 27 16 42 19 24 6 29 3 38 -20 16 -43 12 -62 -17 -74 -16 -6 -35 -15 -43
-21 -8 -5 -55 -34 -105 -64 -49 -30 -98 -65 -109 -79 -24 -32 -15 -73 20 -89
22 -10 33 -8 72 12 26 13 58 32 72 41 14 9 72 42 130 74 58 32 111 64 118 73
16 21 15 73 -2 97 -30 45 -49 126 -44 197 3 38 11 75 17 81 15 15 14 50 -1 65
-18 18 -68 14 -113 -10z"/>
<path d="M1035 2427 c-16 -8 -46 -36 -65 -63 -33 -46 -35 -54 -35 -124 0 -68
3 -79 31 -120 75 -107 182 -154 226 -100 31 38 20 70 -34 99 -63 35 -83 55
-95 95 -9 29 -7 37 11 59 32 37 59 39 109 7 25 -15 48 -33 51 -39 18 -29 79
-1 87 39 8 40 -42 102 -110 138 -38 20 -140 25 -176 9z"/>
<path d="M2744 2424 c-85 -30 -146 -132 -104 -174 28 -28 52 -25 100 15 23 19
47 36 53 36 7 1 22 3 34 4 42 4 65 -46 50 -110 -5 -21 -21 -39 -51 -58 -24
-15 -48 -27 -54 -27 -14 0 -32 -33 -32 -58 0 -30 32 -52 76 -52 118 1 231 177
195 305 -14 53 -50 101 -88 119 -41 20 -124 19 -179 0z"/>
<path d="M2291 2023 c-63 -31 -86 -98 -57 -168 39 -91 171 -94 216 -4 25 48
25 76 0 116 -38 63 -100 84 -159 56z m83 -46 c15 -24 -17 -56 -41 -41 -24 15
-26 29 -7 48 19 19 33 17 48 -7z"/>
<path d="M1529 2002 c-64 -53 -57 -151 14 -198 48 -32 91 -27 129 14 32 35 42
75 28 118 -12 34 -40 48 -40 19 0 -10 -10 -15 -34 -15 -30 0 -34 3 -38 30 -3
17 -1 33 4 36 15 10 8 20 -14 20 -12 0 -34 -11 -49 -24z"/>
<path d="M767 1815 c-130 -66 -239 -135 -261 -166 -9 -13 -16 -19 -16 -14 0
14 -48 -35 -53 -54 -2 -10 2 -32 9 -50 22 -52 55 -43 184 48 62 43 146 95 186
115 97 48 119 90 72 133 -30 27 -47 25 -121 -12z"/>
<path d="M3052 1817 c-45 -48 -24 -85 78 -139 124 -67 135 -73 138 -80 2 -5
10 -8 17 -8 7 0 15 -4 17 -8 6 -16 124 -82 145 -82 12 0 31 12 42 27 24 30 21
55 -12 91 -24 26 -151 112 -166 112 -5 0 -11 4 -13 8 -6 16 -177 102 -201 102
-13 0 -33 -10 -45 -23z"/>
<path d="M1925 1742 c-67 -15 -121 -82 -130 -164 -7 -59 18 -105 79 -146 38
-25 58 -32 90 -31 81 4 170 59 180 111 2 7 6 25 10 40 16 54 -33 141 -98 175
-31 16 -92 23 -131 15z"/>
<path d="M810 1561 c-80 -36 -227 -142 -282 -203 -36 -39 -37 -82 -4 -103 35
-23 67 -11 159 63 45 35 117 89 160 119 80 57 92 78 63 115 -18 24 -55 28 -96
9z"/>
<path d="M3043 1555 c-24 -26 -16 -72 16 -94 16 -12 32 -21 35 -21 16 0 206
-145 214 -163 6 -12 59 -37 81 -37 22 0 61 44 61 69 0 19 -62 91 -78 91 -5 0
-12 4 -14 8 -1 4 -23 23 -48 42 -25 19 -47 38 -50 41 -4 5 -80 45 -132 71 -27
12 -72 9 -85 -7z"/>
<path d="M1170 1368 c-19 -12 -61 -44 -92 -71 -45 -38 -58 -55 -58 -76 0 -37
32 -65 63 -57 29 7 193 140 201 163 4 9 -1 26 -9 39 -20 30 -58 31 -105 2z"/>
<path d="M2720 1371 c-17 -32 -12 -57 17 -77 14 -10 33 -26 42 -34 35 -33 80
-60 99 -60 34 0 66 33 59 62 -9 34 -60 82 -113 108 -55 25 -90 26 -104 1z"/>
<path d="M2061 1294 c-56 -32 -105 -33 -174 -4 -50 21 -60 22 -82 10 -42 -22
-30 -73 27 -118 46 -36 173 -43 248 -14 59 23 96 83 72 118 -20 31 -48 33 -91
8z"/>
<path d="M830 1283 c-21 -7 -134 -128 -151 -161 -8 -15 -17 -29 -20 -32 -12
-9 -49 -99 -49 -118 0 -37 62 -70 92 -48 8 6 32 38 53 71 33 52 110 160 125
175 3 3 11 17 19 33 13 25 13 30 -6 55 -21 28 -37 34 -63 25z"/>
<path d="M3052 1262 c-26 -36 -19 -69 24 -118 18 -22 34 -43 34 -48 0 -4 14
-25 30 -46 17 -21 30 -41 30 -46 0 -4 10 -23 23 -41 39 -58 105 -54 129 9 6
15 -33 107 -57 134 -30 34 -45 55 -45 62 0 4 -24 33 -53 65 -60 64 -86 71
-115 29z"/>
<path d="M972 1048 c-20 -22 -83 -152 -80 -166 1 -4 -4 -20 -11 -37 -7 -16
-15 -53 -18 -81 -6 -59 11 -84 57 -84 35 0 53 24 70 90 11 43 60 165 80 202
15 26 12 42 -11 72 -25 32 -59 33 -87 4z"/>
<path d="M2873 1044 c-29 -29 -28 -53 7 -128 11 -25 20 -48 20 -51 0 -3 9 -25
19 -48 11 -24 23 -56 27 -72 10 -42 33 -65 65 -65 41 0 63 38 55 92 -7 44 -47
169 -57 178 -3 3 -11 21 -19 40 -16 40 -54 80 -76 80 -8 0 -26 -12 -41 -26z"/>
<path d="M1175 887 c-29 -26 -60 -136 -71 -252 -8 -89 8 -125 55 -125 38 0 59
26 65 82 10 82 17 122 32 179 18 74 18 93 -3 111 -32 27 -52 28 -78 5z"/>
<path d="M2683 895 c-28 -19 -33 -56 -17 -118 7 -29 15 -69 18 -89 3 -21 10
-58 16 -83 6 -26 8 -50 5 -55 -6 -10 42 -50 60 -50 7 0 25 10 40 22 26 20 27
24 22 92 -5 73 -30 200 -49 249 -18 45 -57 59 -95 32z"/>
<path d="M1383 694 c-26 -26 -26 -26 -19 -152 6 -124 7 -128 35 -154 34 -30
64 -28 86 6 12 17 12 44 4 151 -6 72 -14 137 -18 144 -4 8 -20 18 -35 22 -23
6 -33 3 -53 -17z"/>
<path d="M2483 710 c-13 -5 -24 -13 -24 -17 -4 -25 -7 -59 -14 -153 -4 -58 -9
-108 -11 -111 -9 -16 39 -59 65 -59 55 0 66 27 69 175 l4 132 -27 22 c-31 23
-31 23 -62 11z"/>
<path d="M2241 641 c-7 -5 -33 -66 -56 -135 l-43 -126 20 -25 c35 -45 91 -26
123 42 19 40 55 166 55 196 0 40 -62 71 -99 48z"/>
<path d="M1624 615 c-21 -21 -25 -32 -20 -63 10 -75 48 -165 84 -199 29 -28
56 -29 82 -3 30 30 28 42 -25 165 -8 17 -19 47 -25 68 -8 25 -20 41 -37 48
-32 12 -30 13 -59 -16z"/>
<path d="M1933 602 c-22 -14 -30 -57 -27 -147 2 -49 6 -99 9 -111 6 -26 43
-44 70 -34 42 16 47 33 43 156 -3 100 -7 118 -23 130 -21 15 -53 18 -72 6z"/>
</g>
</svg>
