<svg xmlns="http://www.w3.org/2000/svg" width="192" height="192"><path d="M79.5 1.5C59.55 5.023 41.773 14.477 27.602 29.102 14.102 43.05 5.926 58.273 1.8 77.25c-1.95 8.926-1.95 28.574 0 37.5 4.125 18.977 12.3 34.2 25.8 48.148 37.5 38.704 99.297 38.704 136.797 0 13.5-13.949 21.676-29.171 25.801-48.148 1.95-8.926 1.95-28.574 0-37.5-4.125-18.977-12.3-34.2-25.8-48.148C142.351 6.375 110.55-3.977 79.5 1.5m27.75.75c43.574 5.398 77.477 39.602 82.574 83.477 6.824 58.875-43.722 110.097-102.597 104.171-25.426-2.546-47.028-13.796-63.079-32.847-12.972-15.375-20.023-32.102-22.046-52.2C-3.898 45.524 47.926-5.022 107.25 2.25m0 0" style="stroke:none;fill-rule:nonzero;fill:#000;fill-opacity:1"/><path d="M79.2 5.625C42.522 12.602 13.5 41.25 6 77.925c-2.102 10.274-2.102 25.876 0 36.15 7.574 37.05 36.898 65.85 73.8 72.3 8.552 1.426 23.848 1.426 32.4 0 35.698-6.227 64.124-33.148 73.277-69.227 1.421-5.625 1.648-8.546 1.648-21.148 0-12.676-.227-15.523-1.727-21.227-8.546-33.972-34.046-59.546-67.875-68.097-8.25-2.102-29.546-2.625-38.324-1.051m38.777 5.176c8.773 2.25 20.847 7.875 28.574 13.199 16.5 11.398 29.398 30 34.722 50.25 2.551 9.676 3.227 26.477 1.426 36.676-2.25 12.75-7.199 24.824-14.847 35.847-4.426 6.375-15.602 17.403-22.278 21.903-7.05 4.8-19.199 10.347-27.597 12.597-6.75 1.875-8.477 2.028-21.977 2.028s-15.227-.153-21.977-2.028c-8.398-2.25-20.546-7.796-27.597-12.597-6.676-4.5-17.852-15.528-22.278-21.903C13.273 131.023 8.25 114.824 8.25 95.477c0-42.079 30.148-78.227 71.773-86.102 9.454-1.727 28.579-1.05 37.954 1.426m0 0" style="stroke:none;fill-rule:nonzero;fill:#000;fill-opacity:1"/><path d="M86.7 17.477c-1.95 1.421-1.2 3.75 1.573 5.023 3.079 1.426 3.153 2.324.227 1.727-1.727-.301-2.25-.153-2.25.75 0 2.023 4.875 2.847 6.602 1.125 1.875-1.875 1.046-4.204-1.727-5.102-1.426-.45-2.625-1.125-2.625-1.5s1.2-.45 2.625-.227c2.926.454 3.227.153 1.426-1.574-1.426-1.426-4.051-1.574-5.852-.222M98.7 17.773c-.15.75-.45 3-.598 5.102-.153 3 0 3.75 1.046 3.977.977.148 1.426-.454 1.801-2.551l.528-2.778 1.421 2.778c1.352 2.699 3.227 4.125 4.125 3.222.227-.296.676-2.699.903-5.398.449-4.352.375-4.875-.824-4.875-.829 0-1.579.824-1.954 2.398l-.671 2.477-1.352-2.852c-1.5-2.921-3.75-3.75-4.426-1.5M78 18.977c0 .597.375 2.921.824 5.25.903 4.421 1.352 4.796 5.028 3.824.898-.301 1.648-.977 1.648-1.574 0-.676-.602-.977-1.648-.829-1.5.227-1.801-.222-2.403-3.75-.523-3.074-.972-3.898-2.023-3.898-.824 0-1.426.45-1.426.977M110.773 18.523c-.523.903-2.171 9.301-1.875 9.602.153.148 1.727.523 3.454.824 2.546.375 3.148.301 3.148-.676 0-.671-.75-1.273-1.648-1.421-1.954-.227-1.653-1.727.296-1.653 1.875.074 2.329-1.8.528-2.324-2.176-.676-1.801-2.102.449-1.574 1.352.375 1.875.148 1.875-.602 0-.597-.227-1.273-.523-1.426-1.352-.824-5.329-1.347-5.704-.75m0 0" style="stroke:none;fill-rule:nonzero;fill:#000;fill-opacity:1"/><path d="M72.977 19.727c-1.278.523-2.551 1.125-2.852 1.421-.523.528 1.8 9.602 2.55 9.602.223 0 1.723-.375 3.302-.824 3.523-.977 4.046-3.301.523-2.551-2.625.602-3.074-.602-.75-1.875 1.875-.977 1.2-2.55-.824-2.023-2.176.597-2.477-.903-.375-1.727 1.273-.45 1.8-1.05 1.5-1.875-.227-.602-.528-1.125-.602-1.05 0 0-1.125.448-2.472.902M119.023 20.773c-.296.227-.523 2.625-.523 5.176 0 4.125.227 4.875 1.574 5.625 1.5.75 2.028.45 5.25-3.148 4.051-4.5 4.2-4.95 2.403-5.403-.829-.148-2.25.75-3.75 2.403l-2.403 2.699-.074-3.977c0-2.699-.3-3.898-.977-3.898-.597 0-1.273.227-1.5.523M64.352 23.102c-1.579.597-2.852 1.347-2.852 1.648 0 1.352 3.898 9 4.574 9 1.574 0 5.25-2.398 4.95-3.227-.376-.972-.825-.972-2.922-.148-.977.375-1.352.148-1.352-.676 0-.676.523-1.199 1.125-1.199S69 27.977 69 27.3c0-.902-.45-1.124-1.875-.75-2.25.598-2.477-.448-.375-1.874 2.477-1.727.75-2.778-2.398-1.574M128.25 28.648c-1.2 2.176-2.25 4.278-2.25 4.727 0 .75 4.125 3.375 5.324 3.375 1.125 0 .75-2.023-.449-2.55-.602-.223-1.125-.9-1.125-1.575 0-.898.3-1.05 1.426-.375 1.949.977 2.324.977 2.324-.375 0-.523-.602-1.352-1.273-1.8-1.954-1.052-.528-1.95 1.574-.973 1.426.671 1.875.597 2.25-.301.222-.676-.602-1.574-2.551-2.551l-3-1.5ZM57.75 26.25c-.824.523-.898 1.05-.148 2.55.75 1.65.671 2.024-.602 2.7-1.125.602-1.648.45-2.55-.898-.9-1.278-1.348-1.426-2.25-.676-.973.824-.75 1.426 1.35 4.8 3.15 4.95 5.848 5.25 3.9.45-.9-2.102 1.948-2.551 3.527-.602 1.125 1.426 1.5 1.5 2.398.602.824-.903.602-1.727-1.8-5.324-2.024-3.227-3-4.125-3.825-3.602M135.375 33c-1.574 2.102-2.55 4.273-2.324 4.875.523 1.426 1.875 1.426 2.398 0 .75-1.875 1.653-1.273 1.2.824-.223 1.2.078 2.25.675 2.625 1.727 1.051 2.176.824 2.176-1.199 0-1.125.45-1.875 1.05-1.875 1.427 0 3.45-2.023 3.45-3.45 0-1.124-4.273-5.55-5.324-5.55-.301 0-1.801 1.727-3.301 3.75m5.25.824c.75 1.125-.074 1.727-1.5 1.125-.676-.222-.977-.75-.75-1.199.602-.977 1.648-.977 2.25.074M47.55 33.375c-.3.602.075 1.95.75 3 1.802 2.7 1.5 2.926-1.35 1.2-2.325-1.427-2.626-1.5-3.524-.376-.824 1.051-.75 1.574.3 3.45 1.649 2.925 1.274 3.3-1.277 1.277-1.875-1.5-4.199-1.5-4.199-.074 0 .375 1.875 1.949 4.125 3.449 3.375 2.25 4.426 2.625 5.625 1.949 1.875-.977 1.875-1.125-.148-4.352L46.199 40.2l2.778 1.727c2.25 1.347 3 1.574 3.898.824 1.5-1.273 1.5-1.5-1.273-6.3-2.477-4.348-3.375-5.024-4.051-3.075M82.574 35.7c-18.972 4.277-36 18.6-43.426 36.448-3.597 8.625-4.949 16.653-4.421 26.778.523 10.199 1.796 15.449 5.847 23.847 7.5 15.75 22.653 28.278 39.676 33 6.824 1.875 24.602 1.875 31.5 0 7.273-2.023 17.7-7.5 23.7-12.449 9.226-7.648 17.1-19.875 20.323-31.574 1.875-6.824 1.875-24.676 0-31.5C150 59.477 132.75 42.074 112.125 36.3c-6.227-1.726-23.176-2.1-29.55-.6m25.278 3.75c7.347 1.425 19.421 7.277 24.972 12.073 8.778 7.579 14.7 16.5 18.45 27.602 1.8 5.398 2.027 7.05 2.027 16.875s-.227 11.477-2.028 16.875c-4.949 14.773-14.398 26.398-27.296 33.602-2.852 1.5-7.801 3.671-11.102 4.796-5.398 1.801-7.05 2.028-16.875 2.028s-11.477-.227-16.875-2.028c-18.824-6.296-32.102-19.574-38.398-38.398-1.801-5.398-2.028-7.125-2.028-16.875 0-9.824.153-11.398 2.028-16.875 3.75-11.176 9.75-20.023 18.449-27.602C64.5 46.95 76.8 40.875 83.625 39.45c6.977-1.426 17.102-1.5 24.227 0m0 0" style="stroke:none;fill-rule:nonzero;fill:#000;fill-opacity:1"/><path d="M93.227 43.273c-2.403 3.75-3.301 3.977-5.778 1.352-2.625-2.852-5.097-2.25-5.773 1.426-.153.75-.903 1.8-1.574 2.25-.977.597-1.653.375-3.153-.977-2.625-2.472-4.5-1.875-4.949 1.727-.523 3.824-2.25 4.949-5.023 3.3-3-1.726-5.028-.527-4.426 2.7.676 3.523-.375 4.5-3.903 3.972-3.824-.671-5.398.829-3.972 3.528 1.648 3.074.824 4.574-2.778 4.8-3.898.297-4.574 1.575-2.699 5.024 1.125 2.102 1.2 2.7.375 3.676-.597.676-1.648 1.199-2.324 1.199-3.75 0-5.324 3.602-2.25 5.25 1.875.977 2.023 4.352.227 4.95-4.204 1.277-5.329 4.198-2.176 5.624 3.3 1.5 3.3 4.352 0 5.852-2.551 1.125-2.102 3.676.824 5.324 2.773 1.5 3.3 4.05 1.2 5.25-3.15 1.648-1.65 5.25 2.175 5.25 2.398 0 3.3 2.625 1.8 5.176-1.8 3.074-.976 4.426 2.848 4.722 3.602.227 4.426 1.727 2.778 4.801-1.426 2.778.148 4.125 4.199 3.528 2.773-.375 3.3-.227 3.676 1.125.3.824.3 2.324.074 3.296-.75 2.852 1.2 3.977 4.05 2.477 3.223-1.648 5.177-.523 5.473 3.148.301 3.528 2.176 4.125 4.801 1.653 2.25-2.176 4.051-1.352 4.95 2.176.828 3 3.078 3.222 5.55.523.977-1.05 2.028-1.875 2.477-1.875 1.05 0 3.074 2.176 3.074 3.375 0 .602.676 1.273 1.5 1.5 1.727.523 3.75-.75 3.75-2.324 0-.528.676-1.352 1.574-1.875 1.352-.676 1.875-.528 3.676 1.199 2.625 2.55 4.574 2.25 5.398-.824.829-3.227 2.625-3.75 5.403-1.727 2.699 2.028 4.5 1.2 4.8-2.176.376-3.449 2.024-4.5 4.723-2.921 2.25 1.273 4.352 1.046 4.5-.528 0-.449.074-2.023.153-3.449l.148-2.625h3.75c3.3 0 3.75-.227 3.977-1.648.148-.903-.079-2.25-.528-3-1.199-2.329.301-3.977 3.676-3.977 2.25 0 3-.3 3.375-1.574.3-.977.074-2.028-.676-2.852-2.25-2.472-1.125-4.949 2.477-5.472 3.074-.454 3.597-2.329 1.347-5.102-2.25-2.625-1.796-4.95 1.051-5.398.903-.153 2.028-.829 2.477-1.579.676-1.125.375-1.722-1.727-3.449-2.847-2.324-2.926-4.5-.222-5.699 3.148-1.426 2.699-5.625-.676-5.625-.75 0-1.727-.676-2.176-1.426-.602-1.199-.375-1.949 1.273-3.824 2.329-2.773 1.727-4.648-1.648-5.25-2.773-.523-4.05-2.55-2.773-4.273 2.472-3.528 1.5-5.477-2.551-5.477-2.778 0-4.426-1.95-3.227-3.824.977-1.574.824-4.426-.222-4.574-.528 0-2.329-.153-3.977-.153-2.926-.074-3-.148-3.074-2.699-.074-1.426-.153-3-.227-3.45-.148-1.573-2.25-1.8-4.5-.527-2.699 1.579-4.347.528-4.722-2.921-.375-3.454-2.329-4.352-4.653-2.176-1.648 1.574-2.176 1.722-3.75.972-1.199-.523-1.949-1.574-2.097-2.921-.301-3-3-3.227-5.329-.528-2.097 2.403-3.671 2.102-5.171-.972-1.352-2.852-3.227-3-4.875-.454m-5.852 12.75c1.05 1.051 1.2 2.625.977 11.028-.227 8.625-.454 10.199-1.954 12.898-.972 1.653-2.773 3.602-3.898 4.278-2.324 1.421-7.95 1.648-9.75.523-.824-.523-.148-.75 2.398-.75 3.977 0 7.051-1.125 7.727-2.773.3-.829.074-.977-.898-.602-5.403 2.176-6.079 2.102-15.454-.898-8.773-2.852-9.296-5.329-2.625-12.602 4.579-5.023 9.153-8.324 14.852-10.648 4.95-2.028 6.977-2.176 8.625-.454m23.773 0c7.801 3 18.903 12.375 20.403 17.25.898 2.778-2.176 5.176-9.375 7.278-14.324 4.273-21.528 1.722-22.801-7.875l-.45-3.301 1.5 3.75c1.5 3.602 3.9 6.375 5.552 6.375.375 0 .148-.676-.528-1.426-2.324-2.55-3.375-6.972-3.449-13.8 0-5.547.227-6.75 1.5-8.024 1.8-1.8 3.523-1.875 7.648-.227M99.074 90c.75.45 1.95 1.8 2.625 3.074 3.528 6.903-5.398 13.051-11.023 7.5-1.5-1.5-2.176-2.926-2.176-4.574 0-4.875 6.148-8.324 10.574-6m-35.023 3c11.926 3.977 16.426 7.8 16.426 13.8 0 2.927-2.176 8.552-3 7.723-.153-.222 0-1.046.449-1.875 1.125-2.171 1.05-7.125-.227-8.773-.898-1.273-1.05-.898-1.347 3.148-.301 4.051-.75 5.176-4.426 10.278-5.852 8.176-8.551 8.472-13.051 1.347-3.375-5.324-5.625-12.449-6.148-19.347-.375-4.801-.227-5.551 1.199-6.977 2.023-2.023 2.25-2.023 10.125.676m73.199-.227c1.426 1.875 1.574 2.704 1.125 6.977-.602 5.773-2.7 12.523-5.398 17.25-4.727 8.25-7.579 8.926-12.153 2.7-5.398-7.274-7.5-11.098-8.398-15.075-.824-3.602-.75-4.273.597-6.898.829-1.653 2.704-3.528 4.426-4.5 3.977-2.329 5.028-2.176 1.653.148-3.227 2.176-4.352 3.977-4.352 6.898v2.102l1.426-2.25c2.176-3.602 3.972-4.8 10.648-7.05 7.875-2.774 8.477-2.774 10.426-.302m-34.648 21.528c1.125.597 2.847 2.023 3.898 3.148l1.875 2.102-2.324-1.653c-3.375-2.324-6.153-3.222-8.25-2.699-2.324.602-2.324 1.801 0 1.801 2.773 0 6.523 3 10.722 8.625 5.25 7.05 5.25 9-.148 11.324-3.977 1.653-16.426 2.324-21.977 1.051-9.222-1.95-9.824-4.426-3.222-13.273 2.398-3.227 5.176-6.602 6.148-7.5 4.278-3.903 9.301-5.028 13.278-2.926M146.324 40.05c-.597.75-.597 1.575-.074 3 .375 1.126.75 2.4.75 2.774 0 1.278-1.125.676-1.875-.898-.824-1.875-2.176-2.028-2.477-.375-.222 1.199 2.926 4.949 4.204 4.949.296 0 1.273-.45 2.023-1.05 1.273-.9 1.352-1.348.602-3.677-.903-3.074-.375-4.347.824-1.875 1.199 2.329 2.699 2.551 2.699.375 0-3.375-4.648-5.699-6.676-3.222M154.273 45.523c-.296.227-.074.977.375 1.579.75.824.676 1.199-.375 1.722-.671.45-2.171 1.574-3.375 2.551-1.574 1.426-1.796 1.95-1.125 2.7.75.75 1.579.448 3.977-1.2 2.477-1.727 3.148-1.875 4.125-1.125.75.602 1.426.75 1.875.3.523-.527-.074-1.874-1.574-3.902-2.324-3.148-3-3.597-3.903-2.625M33.148 48.75c-.898 1.2-1.648 2.477-1.648 2.926 0 .375 1.727 1.949 3.898 3.449l3.903 2.852 1.722-2.176c.977-1.2 1.727-2.625 1.727-3.153 0-1.347-1.574-1.125-2.7.375-1.198 1.801-2.402.602-1.198-1.273 1.199-1.95-.227-2.773-2.028-1.2-1.648 1.5-2.55.75-1.347-1.124.597-.977.597-1.653.074-2.176-.528-.523-1.278-.074-2.403 1.5M28.95 55.273c-.45 1.125.6 2.403 2.027 2.477.824 0 .597 1.875-.375 2.852-.602.597-1.278.597-2.329 0-1.125-.528-1.648-.528-2.097.222-1.051 1.653-.903 1.801 3.898 4.051 3.824 1.875 4.653 2.023 5.176 1.125.676-1.125-.375-2.477-2.55-3.227-.524-.222-.376-.824.374-1.648.977-.977 1.574-1.125 2.778-.45 1.273.677 1.722.598 2.324-.527.597-1.199.074-1.722-4.051-3.75-4.125-2.023-4.8-2.171-5.176-1.125M155.324 56.7c-.898 1.124-1.574 2.55-1.574 3.3 0 2.398 2.926 5.25 5.324 5.25 3.227 0 6.227-3.148 5.551-5.852-1.2-4.875-6.375-6.375-9.3-2.699m6.375 2.175c.602 1.5-.972 3.375-2.847 3.375-1.579 0-2.477-1.648-1.801-3.375.523-1.5 4.125-1.426 4.648 0M23.102 68.25c-1.278 3.898-.528 5.926 1.273 3.523.824-1.199 1.2-1.199 4.5-.074 2.926 1.051 3.676 1.051 4.125.227.898-1.426.45-1.875-3.375-2.926-2.773-.75-3.375-1.273-3.375-2.7 0-3.152-1.95-1.948-3.148 1.95M161.773 66.148c-3.222 1.125-4.273 1.801-4.125 2.778.227.824.903 1.125 2.176.972 1.426-.148 2.176.301 2.778 1.801.671 1.426 1.347 1.875 2.921 1.653 2.778-.301 3.676-2.102 2.778-5.551-.375-1.574-.977-2.926-1.426-3-.375-.074-2.7.523-5.102 1.347m4.727 3.227c0 .602-.523 1.125-1.125 1.125a1.15 1.15 0 0 1-1.125-1.125c0-.602.523-1.125 1.125-1.125s1.125.523 1.125 1.125M22.875 81.75c-.227.375-.227 1.125.074 1.574.301.528-.375.75-2.023.528-1.875-.153-2.551.074-2.551.898 0 .676 1.125 1.273 3.375 1.648 1.875.301 4.273.676 5.477.903 2.699.523 2.847-1.574.074-2.25-1.051-.301-1.727-.903-1.5-1.426.597-1.727-1.95-3.45-2.926-1.875M171.227 82.426c-.301 1.273-.903 1.574-2.403 1.426-1.273-.153-1.949.148-1.949.824 0 .75 1.574 1.426 4.875 2.023 6.3 1.2 6 1.2 6-.074 0-.676-.898-1.352-2.25-1.574-1.648-.375-2.176-.824-2.023-2.028.222-2.023-1.727-2.546-2.25-.597M17.852 89.773c.523.227 1.199.153 1.421-.074.301-.222-.148-.449-.972-.375-.824 0-1.051.227-.45.45M40.273 143.477c-1.949 1.722-3.523 3.523-3.523 3.972 0 1.051 3.227 4.051 4.352 4.051s1.125-.375 0-2.25c-.829-1.273-.602-1.8 1.949-4.426 1.574-1.574 2.625-3.3 2.398-3.75-.824-1.273-1.273-1.05-5.176 2.403M144.898 142.727c-3.824 4.125-.449 7.125 5.329 4.648.75-.3 1.273-.227 1.273.3 0 .45-.824 1.2-1.875 1.575-2.023.75-2.477 1.875-.898 2.477 1.421.523 4.125-.75 5.023-2.477 1.727-3.227-1.2-6.227-4.426-4.574-.824.449-1.8.824-2.25.824-1.347 0-.898-1.125.75-1.875 2.102-.977 2.25-2.176.301-2.477-.898-.148-2.25.602-3.227 1.579M45.074 149.324c-3 3.375-3.222 3.824-2.176 4.875 1.051 1.051 1.5.75 4.653-2.847 1.875-2.176 3.375-4.278 3.222-4.727-.597-1.727-2.625-.75-5.699 2.7M48.824 152.398c-2.55 3.528-2.773 4.125-1.875 5.102.977.977 1.278.898 2.551-.75 1.2-1.574 1.5-1.648 2.55-.824 1.65 1.426 2.473.375 1.274-1.5-1.199-1.95-.449-2.778 1.426-1.574 3.523 2.171 4.2-.227.75-2.704-1.2-.898-2.55-1.648-2.926-1.648-.449 0-2.097 1.8-3.75 3.898m0 0" style="stroke:none;fill-rule:nonzero;fill:#000;fill-opacity:1"/><path d="m136.125 150.3-2.176 1.802 3.153 4.199c1.796 2.324 3.449 4.199 3.75 4.199 1.5 0 5.398-5.102 5.398-6.977 0-4.722-5.852-6.597-10.125-3.222m7.125 3.376c0 .75-.45 1.8-1.05 2.25-.825.676-1.348.449-2.626-1.352-1.5-2.097-1.5-2.25-.3-3 1.726-.898 3.976.301 3.976 2.102M56.324 157.05c-1.273 2.177-2.324 4.348-2.324 4.723s1.2 1.352 2.625 2.176c1.95.977 2.852 1.125 3.45.528.6-.602.448-1.051-.75-1.653-.9-.523-1.575-1.347-1.575-2.023 0-.903.3-.977 1.574-.227 2.25 1.2 3.824-.375 1.727-1.875-1.801-1.347-.75-2.625 1.125-1.426 1.5.903 2.324.602 2.324-.898 0-.676-4.426-3.375-5.625-3.375-.148 0-1.273 1.8-2.55 4.05M130.875 153.75c-.227.375.074 1.5.676 2.398 1.875 2.625 1.426 3-1.727 1.352-2.847-1.426-5.324-1.352-5.324.074s4.648 8.926 5.55 8.926c1.65 0 1.876-.898.825-3.074-1.648-3.074-1.426-3.227 1.574-1.5 2.926 1.722 3.227 1.8 4.653.898.824-.449.523-1.574-1.278-5.25-2.176-4.273-3.898-5.55-4.949-3.824M67.727 158.773c-.227.75-1.125 3-1.875 4.954-.75 2.023-1.204 3.972-.977 4.347.898 1.426 2.477.602 3.375-1.8l.977-2.399.824 2.625c1.875 5.852 3.449 6 5.625.3 1.949-5.175 1.949-6.3.148-6.3-.972 0-1.574.676-1.949 2.25-.602 2.852-1.574 2.324-2.176-1.125-.597-3.074-3.148-4.95-3.972-2.852M119.25 159.227c-1.05.449-1.95.898-2.102.972-.296.153 2.926 8.852 3.602 9.528.824.898 6-1.5 6-2.778 0-.898-.523-1.05-2.25-.75-2.55.528-3.148-.824-.676-1.574 2.102-.676 1.278-2.324-1.125-2.023-2.25.222-2.625-1.051-.449-1.727 1.875-.602 2.023-2.625.227-2.55-.75 0-2.176.374-3.227.902M78.375 162.148c-.977 3.153-1.8 9.227-1.352 9.676.375.301 1.875.824 3.454 1.051 2.25.45 2.773.3 2.773-.602 0-.671-.676-1.421-1.5-1.648-2.102-.676-1.875-1.875.375-1.875 1.2 0 1.875-.45 1.875-1.125 0-.602-.676-1.125-1.5-1.125s-1.5-.45-1.5-.977c0-.597.977-.972 2.55-.972 2.473 0 2.552.074 3.524 4.5.977 4.125 1.278 4.574 3.153 4.8 1.875.223 2.25-.226 4.5-4.874l2.398-5.102.227 5.023.222 5.102h3.676c2.852 0 3.75-.3 3.75-1.125q0-1.125-2.25-1.125t-2.25-1.125c0-.676.676-1.125 1.875-1.125 1.2 0 1.875-.45 1.875-1.125 0-.676-.676-1.125-1.875-1.125-2.324 0-2.477-1.273-.227-1.648.977-.153 1.801-.829 1.954-1.653.296-1.199 0-1.347-2.102-.898-1.352.222-3.75.449-5.398.449-2.778 0-3 .227-4.5 3.523l-1.579 3.602-.898-3.75c-.824-3.676-.898-3.75-4.125-4.273a92 92 0 0 1-5.102-.977c-.972-.227-1.796 0-2.023.523M106.273 162.523c-1.046.301-1.273.829-.972 2.176.3.977.676 3.301.972 5.176.301 2.625.75 3.375 1.801 3.375s1.426-.523 1.426-2.102l.074-2.023 1.352 1.648c1.426 1.727 3.074 2.176 4.05 1.204.297-.227 0-1.051-.675-1.801-.824-.903-.977-1.875-.602-3.074.75-2.102.45-3.75-.676-4.5-.972-.602-4.574-.676-6.75-.079m4.727 2.778c0 .597-.523 1.199-1.125 1.5-1.125.375-1.574-1.051-.602-2.028.829-.898 1.727-.597 1.727.528m0 0" style="stroke:none;fill-rule:nonzero;fill:#000;fill-opacity:1"/></svg>